<mxfile host="app.diagrams.net" modified="2023-02-11T06:53:50.460Z" agent="5.0 (Windows NT 10.0; Win64; x64) AppleWebKit/537.36 (KHTML, like Gecko) Chrome/109.0.0.0 Safari/537.36 Edg/109.0.1518.78" etag="_ezFis-3hdx7ttDKaHYh" version="20.8.17" type="github">
  <diagram name="第 1 页" id="eRUMMsxShfU1d81g0v3S">
    <mxGraphModel dx="2505" dy="2542" grid="1" gridSize="10" guides="1" tooltips="1" connect="1" arrows="1" fold="1" page="1" pageScale="1" pageWidth="827" pageHeight="1169" math="0" shadow="0">
      <root>
        <mxCell id="0" />
        <mxCell id="1" parent="0" />
        <mxCell id="hH8gsVPZzRmc-5s9tCda-38" style="edgeStyle=orthogonalEdgeStyle;rounded=0;orthogonalLoop=1;jettySize=auto;html=1;exitX=1;exitY=0.5;exitDx=0;exitDy=0;strokeWidth=2;fontFamily=Times New Roman;fontSize=23;endArrow=block;endFill=1;" parent="1" source="hH8gsVPZzRmc-5s9tCda-1" target="hH8gsVPZzRmc-5s9tCda-5" edge="1">
          <mxGeometry relative="1" as="geometry" />
        </mxCell>
        <mxCell id="hH8gsVPZzRmc-5s9tCda-1" value="" style="rounded=0;whiteSpace=wrap;html=1;" parent="1" vertex="1">
          <mxGeometry x="80" y="188.75" width="120" height="60" as="geometry" />
        </mxCell>
        <mxCell id="hH8gsVPZzRmc-5s9tCda-2" value="&lt;font face=&quot;Times New Roman&quot; style=&quot;font-size: 30px;&quot;&gt;Source&lt;/font&gt;" style="text;html=1;align=center;verticalAlign=middle;resizable=0;points=[];autosize=1;strokeColor=none;fillColor=none;" parent="1" vertex="1">
          <mxGeometry x="85" y="193.75" width="110" height="50" as="geometry" />
        </mxCell>
        <mxCell id="hH8gsVPZzRmc-5s9tCda-77" style="edgeStyle=orthogonalEdgeStyle;rounded=0;orthogonalLoop=1;jettySize=auto;html=1;strokeWidth=2;fontFamily=宋体;fontSize=23;endArrow=block;endFill=1;" parent="1" source="hH8gsVPZzRmc-5s9tCda-3" target="hH8gsVPZzRmc-5s9tCda-48" edge="1">
          <mxGeometry relative="1" as="geometry" />
        </mxCell>
        <mxCell id="hH8gsVPZzRmc-5s9tCda-3" value="" style="rounded=0;whiteSpace=wrap;html=1;" parent="1" vertex="1">
          <mxGeometry x="80" y="526.25" width="120" height="60" as="geometry" />
        </mxCell>
        <mxCell id="hH8gsVPZzRmc-5s9tCda-4" value="&lt;font face=&quot;Times New Roman&quot; style=&quot;font-size: 30px;&quot;&gt;Target&lt;/font&gt;" style="text;html=1;align=center;verticalAlign=middle;resizable=0;points=[];autosize=1;strokeColor=none;fillColor=none;" parent="1" vertex="1">
          <mxGeometry x="90" y="531.25" width="100" height="50" as="geometry" />
        </mxCell>
        <mxCell id="hH8gsVPZzRmc-5s9tCda-14" style="edgeStyle=orthogonalEdgeStyle;rounded=0;orthogonalLoop=1;jettySize=auto;html=1;entryX=0;entryY=0.5;entryDx=0;entryDy=0;fontFamily=Times New Roman;fontSize=23;endArrow=block;endFill=1;strokeWidth=2;" parent="1" source="hH8gsVPZzRmc-5s9tCda-5" target="hH8gsVPZzRmc-5s9tCda-11" edge="1">
          <mxGeometry relative="1" as="geometry" />
        </mxCell>
        <mxCell id="hH8gsVPZzRmc-5s9tCda-5" value="" style="rounded=0;whiteSpace=wrap;html=1;fontFamily=Times New Roman;fontSize=23;rotation=90;" parent="1" vertex="1">
          <mxGeometry x="200" y="188.75" width="160" height="60" as="geometry" />
        </mxCell>
        <mxCell id="hH8gsVPZzRmc-5s9tCda-6" value="Edge&lt;br&gt;Conv" style="text;html=1;align=center;verticalAlign=middle;resizable=0;points=[];autosize=1;strokeColor=none;fillColor=none;fontSize=23;fontFamily=Times New Roman;" parent="1" vertex="1">
          <mxGeometry x="245" y="183.75" width="70" height="70" as="geometry" />
        </mxCell>
        <mxCell id="hH8gsVPZzRmc-5s9tCda-19" style="edgeStyle=orthogonalEdgeStyle;rounded=0;orthogonalLoop=1;jettySize=auto;html=1;fontFamily=Times New Roman;fontSize=23;strokeWidth=2;endArrow=block;endFill=1;" parent="1" source="hH8gsVPZzRmc-5s9tCda-7" target="hH8gsVPZzRmc-5s9tCda-18" edge="1">
          <mxGeometry relative="1" as="geometry" />
        </mxCell>
        <mxCell id="hH8gsVPZzRmc-5s9tCda-7" value="" style="rounded=0;whiteSpace=wrap;html=1;fontFamily=Times New Roman;fontSize=23;rotation=90;" parent="1" vertex="1">
          <mxGeometry x="405" y="188.75" width="160" height="60" as="geometry" />
        </mxCell>
        <mxCell id="hH8gsVPZzRmc-5s9tCda-8" value="Edge&lt;br&gt;Conv" style="text;html=1;align=center;verticalAlign=middle;resizable=0;points=[];autosize=1;strokeColor=none;fillColor=none;fontSize=23;fontFamily=Times New Roman;" parent="1" vertex="1">
          <mxGeometry x="450" y="178.75" width="70" height="70" as="geometry" />
        </mxCell>
        <mxCell id="hH8gsVPZzRmc-5s9tCda-33" style="edgeStyle=orthogonalEdgeStyle;rounded=0;orthogonalLoop=1;jettySize=auto;html=1;strokeWidth=2;fontFamily=Times New Roman;fontSize=23;endArrow=block;endFill=1;" parent="1" source="hH8gsVPZzRmc-5s9tCda-11" target="hH8gsVPZzRmc-5s9tCda-7" edge="1">
          <mxGeometry relative="1" as="geometry" />
        </mxCell>
        <mxCell id="hH8gsVPZzRmc-5s9tCda-141" style="edgeStyle=orthogonalEdgeStyle;rounded=0;orthogonalLoop=1;jettySize=auto;html=1;strokeWidth=2;fontFamily=宋体;fontSize=24;endArrow=block;endFill=1;" parent="1" source="hH8gsVPZzRmc-5s9tCda-11" edge="1">
          <mxGeometry relative="1" as="geometry">
            <mxPoint x="840" y="220.75" as="targetPoint" />
            <Array as="points">
              <mxPoint x="430" y="219" />
              <mxPoint x="430" y="120" />
              <mxPoint x="840" y="120" />
            </Array>
          </mxGeometry>
        </mxCell>
        <mxCell id="hH8gsVPZzRmc-5s9tCda-143" style="edgeStyle=orthogonalEdgeStyle;rounded=0;orthogonalLoop=1;jettySize=auto;html=1;strokeWidth=2;fontFamily=宋体;fontSize=24;endArrow=block;endFill=1;" parent="1" source="hH8gsVPZzRmc-5s9tCda-11" target="hH8gsVPZzRmc-5s9tCda-41" edge="1">
          <mxGeometry relative="1" as="geometry">
            <mxPoint x="1090" y="190" as="targetPoint" />
            <Array as="points">
              <mxPoint x="430" y="219" />
              <mxPoint x="430" y="120" />
              <mxPoint x="1090" y="120" />
            </Array>
          </mxGeometry>
        </mxCell>
        <mxCell id="hH8gsVPZzRmc-5s9tCda-11" value="" style="whiteSpace=wrap;html=1;aspect=fixed;fontFamily=Times New Roman;fontSize=23;" parent="1" vertex="1">
          <mxGeometry x="340" y="186.25" width="65" height="65" as="geometry" />
        </mxCell>
        <mxCell id="hH8gsVPZzRmc-5s9tCda-139" style="edgeStyle=orthogonalEdgeStyle;rounded=0;orthogonalLoop=1;jettySize=auto;html=1;strokeWidth=2;fontFamily=宋体;fontSize=24;endArrow=block;endFill=1;" parent="1" edge="1">
          <mxGeometry relative="1" as="geometry">
            <mxPoint x="640" y="218.75" as="targetPoint" />
            <mxPoint x="410" y="218.75" as="sourcePoint" />
            <Array as="points">
              <mxPoint x="430" y="219" />
              <mxPoint x="430" y="120" />
              <mxPoint x="640" y="120" />
            </Array>
          </mxGeometry>
        </mxCell>
        <mxCell id="hH8gsVPZzRmc-5s9tCda-12" value="OA" style="text;html=1;align=center;verticalAlign=middle;resizable=0;points=[];autosize=1;strokeColor=none;fillColor=none;fontSize=23;fontFamily=Times New Roman;" parent="1" vertex="1">
          <mxGeometry x="342.5" y="198.75" width="60" height="40" as="geometry" />
        </mxCell>
        <mxCell id="hH8gsVPZzRmc-5s9tCda-34" style="edgeStyle=orthogonalEdgeStyle;rounded=0;orthogonalLoop=1;jettySize=auto;html=1;strokeWidth=2;fontFamily=Times New Roman;fontSize=23;endArrow=block;endFill=1;" parent="1" source="hH8gsVPZzRmc-5s9tCda-17" target="hH8gsVPZzRmc-5s9tCda-21" edge="1">
          <mxGeometry relative="1" as="geometry" />
        </mxCell>
        <mxCell id="hH8gsVPZzRmc-5s9tCda-144" style="edgeStyle=orthogonalEdgeStyle;rounded=0;orthogonalLoop=1;jettySize=auto;html=1;strokeWidth=2;fontFamily=宋体;fontSize=24;endArrow=block;endFill=1;" parent="1" source="hH8gsVPZzRmc-5s9tCda-17" edge="1">
          <mxGeometry relative="1" as="geometry">
            <mxPoint x="840" y="220.75" as="targetPoint" />
            <Array as="points">
              <mxPoint x="620" y="218.75" />
              <mxPoint x="620" y="318.75" />
              <mxPoint x="840" y="318.75" />
            </Array>
          </mxGeometry>
        </mxCell>
        <mxCell id="hH8gsVPZzRmc-5s9tCda-149" style="edgeStyle=orthogonalEdgeStyle;rounded=0;orthogonalLoop=1;jettySize=auto;html=1;strokeWidth=2;fontFamily=宋体;fontSize=24;endArrow=block;endFill=1;" parent="1" source="hH8gsVPZzRmc-5s9tCda-17" target="hH8gsVPZzRmc-5s9tCda-41" edge="1">
          <mxGeometry relative="1" as="geometry">
            <mxPoint x="1090" y="260" as="targetPoint" />
            <Array as="points">
              <mxPoint x="620" y="219" />
              <mxPoint x="620" y="319" />
              <mxPoint x="1080" y="319" />
            </Array>
          </mxGeometry>
        </mxCell>
        <mxCell id="hH8gsVPZzRmc-5s9tCda-17" value="" style="whiteSpace=wrap;html=1;aspect=fixed;fontFamily=Times New Roman;fontSize=23;" parent="1" vertex="1">
          <mxGeometry x="545" y="186.25" width="65" height="65" as="geometry" />
        </mxCell>
        <mxCell id="hH8gsVPZzRmc-5s9tCda-18" value="OA" style="text;html=1;align=center;verticalAlign=middle;resizable=0;points=[];autosize=1;strokeColor=none;fillColor=none;fontSize=23;fontFamily=Times New Roman;" parent="1" vertex="1">
          <mxGeometry x="547.5" y="198.75" width="60" height="40" as="geometry" />
        </mxCell>
        <mxCell id="hH8gsVPZzRmc-5s9tCda-20" style="edgeStyle=orthogonalEdgeStyle;rounded=0;orthogonalLoop=1;jettySize=auto;html=1;fontFamily=Times New Roman;fontSize=23;strokeWidth=2;endArrow=block;endFill=1;" parent="1" source="hH8gsVPZzRmc-5s9tCda-21" target="hH8gsVPZzRmc-5s9tCda-24" edge="1">
          <mxGeometry relative="1" as="geometry" />
        </mxCell>
        <mxCell id="hH8gsVPZzRmc-5s9tCda-21" value="" style="rounded=0;whiteSpace=wrap;html=1;fontFamily=Times New Roman;fontSize=23;rotation=90;" parent="1" vertex="1">
          <mxGeometry x="610" y="188.75" width="160" height="60" as="geometry" />
        </mxCell>
        <mxCell id="hH8gsVPZzRmc-5s9tCda-22" value="Edge&lt;br&gt;Conv" style="text;html=1;align=center;verticalAlign=middle;resizable=0;points=[];autosize=1;strokeColor=none;fillColor=none;fontSize=23;fontFamily=Times New Roman;" parent="1" vertex="1">
          <mxGeometry x="655" y="183.75" width="70" height="70" as="geometry" />
        </mxCell>
        <mxCell id="hH8gsVPZzRmc-5s9tCda-36" style="edgeStyle=orthogonalEdgeStyle;rounded=0;orthogonalLoop=1;jettySize=auto;html=1;strokeWidth=2;fontFamily=Times New Roman;fontSize=23;endArrow=block;endFill=1;" parent="1" source="hH8gsVPZzRmc-5s9tCda-23" target="hH8gsVPZzRmc-5s9tCda-26" edge="1">
          <mxGeometry relative="1" as="geometry">
            <Array as="points">
              <mxPoint x="840" y="208.75" />
              <mxPoint x="840" y="208.75" />
            </Array>
          </mxGeometry>
        </mxCell>
        <mxCell id="l9gDS8wcYWlUbijVO6xy-1" style="edgeStyle=orthogonalEdgeStyle;rounded=0;jumpStyle=arc;jumpSize=8;orthogonalLoop=1;jettySize=auto;html=1;strokeWidth=2;" edge="1" parent="1" source="hH8gsVPZzRmc-5s9tCda-23" target="hH8gsVPZzRmc-5s9tCda-41">
          <mxGeometry relative="1" as="geometry">
            <mxPoint x="1070" y="40" as="targetPoint" />
            <Array as="points">
              <mxPoint x="830" y="221" />
              <mxPoint x="830" y="90" />
              <mxPoint x="1070" y="90" />
            </Array>
          </mxGeometry>
        </mxCell>
        <mxCell id="hH8gsVPZzRmc-5s9tCda-23" value="" style="whiteSpace=wrap;html=1;aspect=fixed;fontFamily=Times New Roman;fontSize=23;" parent="1" vertex="1">
          <mxGeometry x="745" y="188.75" width="65" height="65" as="geometry" />
        </mxCell>
        <mxCell id="hH8gsVPZzRmc-5s9tCda-24" value="OA" style="text;html=1;align=center;verticalAlign=middle;resizable=0;points=[];autosize=1;strokeColor=none;fillColor=none;fontSize=23;fontFamily=Times New Roman;" parent="1" vertex="1">
          <mxGeometry x="747.5" y="198.75" width="60" height="40" as="geometry" />
        </mxCell>
        <mxCell id="hH8gsVPZzRmc-5s9tCda-37" style="edgeStyle=orthogonalEdgeStyle;rounded=0;orthogonalLoop=1;jettySize=auto;html=1;strokeWidth=2;fontFamily=Times New Roman;fontSize=23;endArrow=block;endFill=1;" parent="1" source="hH8gsVPZzRmc-5s9tCda-26" target="hH8gsVPZzRmc-5s9tCda-28" edge="1">
          <mxGeometry relative="1" as="geometry" />
        </mxCell>
        <mxCell id="hH8gsVPZzRmc-5s9tCda-26" value="" style="rounded=0;whiteSpace=wrap;html=1;fontFamily=Times New Roman;fontSize=23;rotation=90;" parent="1" vertex="1">
          <mxGeometry x="810" y="191.25" width="160" height="60" as="geometry" />
        </mxCell>
        <mxCell id="hH8gsVPZzRmc-5s9tCda-27" value="Edge&lt;br&gt;Conv" style="text;html=1;align=center;verticalAlign=middle;resizable=0;points=[];autosize=1;strokeColor=none;fillColor=none;fontSize=23;fontFamily=Times New Roman;" parent="1" vertex="1">
          <mxGeometry x="855" y="181.25" width="70" height="70" as="geometry" />
        </mxCell>
        <mxCell id="hH8gsVPZzRmc-5s9tCda-42" style="edgeStyle=orthogonalEdgeStyle;rounded=0;orthogonalLoop=1;jettySize=auto;html=1;strokeWidth=2;fontFamily=Times New Roman;fontSize=23;endArrow=block;endFill=1;" parent="1" source="hH8gsVPZzRmc-5s9tCda-28" target="hH8gsVPZzRmc-5s9tCda-41" edge="1">
          <mxGeometry relative="1" as="geometry" />
        </mxCell>
        <mxCell id="hH8gsVPZzRmc-5s9tCda-28" value="" style="whiteSpace=wrap;html=1;aspect=fixed;fontFamily=Times New Roman;fontSize=23;" parent="1" vertex="1">
          <mxGeometry x="950" y="188.75" width="65" height="65" as="geometry" />
        </mxCell>
        <mxCell id="hH8gsVPZzRmc-5s9tCda-29" value="OA" style="text;html=1;align=center;verticalAlign=middle;resizable=0;points=[];autosize=1;strokeColor=none;fillColor=none;fontSize=23;fontFamily=Times New Roman;" parent="1" vertex="1">
          <mxGeometry x="952.5" y="201.25" width="60" height="40" as="geometry" />
        </mxCell>
        <mxCell id="hH8gsVPZzRmc-5s9tCda-39" value="" style="group;fontFamily=Times New Roman;fontSize=23;" parent="1" vertex="1" connectable="0">
          <mxGeometry x="1060" y="201.25" width="40.0025" height="40.00249999999994" as="geometry" />
        </mxCell>
        <mxCell id="hH8gsVPZzRmc-5s9tCda-40" value="" style="ellipse;whiteSpace=wrap;html=1;aspect=fixed;fontFamily=Times New Roman;fontSize=36;" parent="hH8gsVPZzRmc-5s9tCda-39" vertex="1">
          <mxGeometry x="0.0024999999999977263" width="40" height="40" as="geometry" />
        </mxCell>
        <mxCell id="hH8gsVPZzRmc-5s9tCda-41" value="&lt;b style=&quot;font-size: 26px;&quot;&gt;C&lt;/b&gt;" style="text;html=1;align=center;verticalAlign=middle;resizable=0;points=[];autosize=1;strokeColor=none;fillColor=none;fontSize=23;fontFamily=Times New Roman;" parent="hH8gsVPZzRmc-5s9tCda-39" vertex="1">
          <mxGeometry y="0.002499999999940883" width="40" height="40" as="geometry" />
        </mxCell>
        <mxCell id="hH8gsVPZzRmc-5s9tCda-165" style="edgeStyle=orthogonalEdgeStyle;rounded=0;jumpStyle=arc;jumpSize=8;orthogonalLoop=1;jettySize=auto;html=1;strokeWidth=2;fontFamily=宋体;fontSize=24;endArrow=block;endFill=1;" parent="1" source="hH8gsVPZzRmc-5s9tCda-43" edge="1">
          <mxGeometry relative="1" as="geometry">
            <mxPoint x="1330" y="221.25" as="targetPoint" />
          </mxGeometry>
        </mxCell>
        <mxCell id="hH8gsVPZzRmc-5s9tCda-43" value="" style="rounded=0;whiteSpace=wrap;html=1;fontFamily=Times New Roman;fontSize=23;" parent="1" vertex="1">
          <mxGeometry x="1140" y="191.25" width="120" height="60" as="geometry" />
        </mxCell>
        <mxCell id="hH8gsVPZzRmc-5s9tCda-44" value="&lt;font face=&quot;宋体&quot;&gt;聚合池化&lt;/font&gt;" style="text;html=1;align=center;verticalAlign=middle;resizable=0;points=[];autosize=1;strokeColor=none;fillColor=none;fontSize=23;fontFamily=Times New Roman;" parent="1" vertex="1">
          <mxGeometry x="1140" y="201.75" width="120" height="40" as="geometry" />
        </mxCell>
        <mxCell id="hH8gsVPZzRmc-5s9tCda-46" style="edgeStyle=orthogonalEdgeStyle;rounded=0;orthogonalLoop=1;jettySize=auto;html=1;entryX=0;entryY=0.5;entryDx=0;entryDy=0;strokeWidth=2;fontFamily=宋体;fontSize=23;endArrow=block;endFill=1;" parent="1" source="hH8gsVPZzRmc-5s9tCda-41" target="hH8gsVPZzRmc-5s9tCda-43" edge="1">
          <mxGeometry relative="1" as="geometry" />
        </mxCell>
        <mxCell id="hH8gsVPZzRmc-5s9tCda-47" style="edgeStyle=orthogonalEdgeStyle;rounded=0;orthogonalLoop=1;jettySize=auto;html=1;entryX=0;entryY=0.5;entryDx=0;entryDy=0;fontFamily=Times New Roman;fontSize=23;endArrow=block;endFill=1;strokeWidth=2;" parent="1" source="hH8gsVPZzRmc-5s9tCda-48" target="hH8gsVPZzRmc-5s9tCda-54" edge="1">
          <mxGeometry relative="1" as="geometry" />
        </mxCell>
        <mxCell id="hH8gsVPZzRmc-5s9tCda-48" value="" style="rounded=0;whiteSpace=wrap;html=1;fontFamily=Times New Roman;fontSize=23;rotation=90;" parent="1" vertex="1">
          <mxGeometry x="200" y="526.25" width="160" height="60" as="geometry" />
        </mxCell>
        <mxCell id="hH8gsVPZzRmc-5s9tCda-49" value="Edge&lt;br&gt;Conv" style="text;html=1;align=center;verticalAlign=middle;resizable=0;points=[];autosize=1;strokeColor=none;fillColor=none;fontSize=23;fontFamily=Times New Roman;" parent="1" vertex="1">
          <mxGeometry x="245" y="521.25" width="70" height="70" as="geometry" />
        </mxCell>
        <mxCell id="hH8gsVPZzRmc-5s9tCda-50" style="edgeStyle=orthogonalEdgeStyle;rounded=0;orthogonalLoop=1;jettySize=auto;html=1;fontFamily=Times New Roman;fontSize=23;strokeWidth=2;endArrow=block;endFill=1;" parent="1" source="hH8gsVPZzRmc-5s9tCda-51" target="hH8gsVPZzRmc-5s9tCda-58" edge="1">
          <mxGeometry relative="1" as="geometry" />
        </mxCell>
        <mxCell id="hH8gsVPZzRmc-5s9tCda-51" value="" style="rounded=0;whiteSpace=wrap;html=1;fontFamily=Times New Roman;fontSize=23;rotation=90;" parent="1" vertex="1">
          <mxGeometry x="405" y="526.25" width="160" height="60" as="geometry" />
        </mxCell>
        <mxCell id="hH8gsVPZzRmc-5s9tCda-52" value="Edge&lt;br&gt;Conv" style="text;html=1;align=center;verticalAlign=middle;resizable=0;points=[];autosize=1;strokeColor=none;fillColor=none;fontSize=23;fontFamily=Times New Roman;" parent="1" vertex="1">
          <mxGeometry x="450" y="516.25" width="70" height="70" as="geometry" />
        </mxCell>
        <mxCell id="hH8gsVPZzRmc-5s9tCda-53" style="edgeStyle=orthogonalEdgeStyle;rounded=0;orthogonalLoop=1;jettySize=auto;html=1;strokeWidth=2;fontFamily=Times New Roman;fontSize=23;endArrow=block;endFill=1;" parent="1" source="hH8gsVPZzRmc-5s9tCda-54" target="hH8gsVPZzRmc-5s9tCda-51" edge="1">
          <mxGeometry relative="1" as="geometry" />
        </mxCell>
        <mxCell id="hH8gsVPZzRmc-5s9tCda-156" style="edgeStyle=orthogonalEdgeStyle;rounded=0;jumpStyle=arc;jumpSize=8;orthogonalLoop=1;jettySize=auto;html=1;strokeWidth=2;fontFamily=宋体;fontSize=24;endArrow=block;endFill=1;" parent="1" source="hH8gsVPZzRmc-5s9tCda-54" edge="1">
          <mxGeometry relative="1" as="geometry">
            <mxPoint x="640" y="557.25" as="targetPoint" />
            <Array as="points">
              <mxPoint x="430" y="556" />
              <mxPoint x="430" y="660" />
              <mxPoint x="640" y="660" />
            </Array>
          </mxGeometry>
        </mxCell>
        <mxCell id="hH8gsVPZzRmc-5s9tCda-158" style="edgeStyle=orthogonalEdgeStyle;rounded=0;jumpStyle=none;jumpSize=8;orthogonalLoop=1;jettySize=auto;html=1;strokeWidth=2;fontFamily=宋体;fontSize=24;endArrow=block;endFill=1;" parent="1" source="hH8gsVPZzRmc-5s9tCda-54" target="hH8gsVPZzRmc-5s9tCda-73" edge="1">
          <mxGeometry relative="1" as="geometry">
            <mxPoint x="1090" y="600" as="targetPoint" />
            <Array as="points">
              <mxPoint x="430" y="556" />
              <mxPoint x="430" y="660" />
              <mxPoint x="1090" y="660" />
            </Array>
          </mxGeometry>
        </mxCell>
        <mxCell id="hH8gsVPZzRmc-5s9tCda-54" value="" style="whiteSpace=wrap;html=1;aspect=fixed;fontFamily=Times New Roman;fontSize=23;" parent="1" vertex="1">
          <mxGeometry x="340" y="523.75" width="65" height="65" as="geometry" />
        </mxCell>
        <mxCell id="hH8gsVPZzRmc-5s9tCda-157" style="edgeStyle=orthogonalEdgeStyle;rounded=0;jumpStyle=none;jumpSize=8;orthogonalLoop=1;jettySize=auto;html=1;strokeWidth=2;fontFamily=宋体;fontSize=24;endArrow=block;endFill=1;" parent="1" source="hH8gsVPZzRmc-5s9tCda-55" edge="1">
          <mxGeometry relative="1" as="geometry">
            <mxPoint x="840" y="557.25" as="targetPoint" />
            <Array as="points">
              <mxPoint x="430" y="556" />
              <mxPoint x="430" y="660" />
              <mxPoint x="840" y="660" />
            </Array>
          </mxGeometry>
        </mxCell>
        <mxCell id="hH8gsVPZzRmc-5s9tCda-55" value="OA" style="text;html=1;align=center;verticalAlign=middle;resizable=0;points=[];autosize=1;strokeColor=none;fillColor=none;fontSize=23;fontFamily=Times New Roman;" parent="1" vertex="1">
          <mxGeometry x="342.5" y="536.25" width="60" height="40" as="geometry" />
        </mxCell>
        <mxCell id="hH8gsVPZzRmc-5s9tCda-56" style="edgeStyle=orthogonalEdgeStyle;rounded=0;orthogonalLoop=1;jettySize=auto;html=1;strokeWidth=2;fontFamily=Times New Roman;fontSize=23;endArrow=block;endFill=1;" parent="1" source="hH8gsVPZzRmc-5s9tCda-57" target="hH8gsVPZzRmc-5s9tCda-60" edge="1">
          <mxGeometry relative="1" as="geometry" />
        </mxCell>
        <mxCell id="hH8gsVPZzRmc-5s9tCda-160" style="edgeStyle=orthogonalEdgeStyle;rounded=0;jumpStyle=none;jumpSize=8;orthogonalLoop=1;jettySize=auto;html=1;strokeWidth=2;fontFamily=宋体;fontSize=24;endArrow=block;endFill=1;" parent="1" source="hH8gsVPZzRmc-5s9tCda-57" edge="1">
          <mxGeometry relative="1" as="geometry">
            <mxPoint x="840" y="558.25" as="targetPoint" />
            <Array as="points">
              <mxPoint x="620" y="556.25" />
              <mxPoint x="620" y="451.25" />
              <mxPoint x="840" y="451.25" />
            </Array>
          </mxGeometry>
        </mxCell>
        <mxCell id="hH8gsVPZzRmc-5s9tCda-161" style="edgeStyle=orthogonalEdgeStyle;rounded=0;jumpStyle=none;jumpSize=8;orthogonalLoop=1;jettySize=auto;html=1;strokeWidth=2;fontFamily=宋体;fontSize=24;endArrow=block;endFill=1;" parent="1" source="hH8gsVPZzRmc-5s9tCda-57" target="hH8gsVPZzRmc-5s9tCda-73" edge="1">
          <mxGeometry relative="1" as="geometry">
            <mxPoint x="1050" y="530" as="targetPoint" />
            <Array as="points">
              <mxPoint x="620" y="556" />
              <mxPoint x="620" y="451" />
              <mxPoint x="1080" y="451" />
            </Array>
          </mxGeometry>
        </mxCell>
        <mxCell id="hH8gsVPZzRmc-5s9tCda-57" value="" style="whiteSpace=wrap;html=1;aspect=fixed;fontFamily=Times New Roman;fontSize=23;" parent="1" vertex="1">
          <mxGeometry x="545" y="523.75" width="65" height="65" as="geometry" />
        </mxCell>
        <mxCell id="hH8gsVPZzRmc-5s9tCda-58" value="OA" style="text;html=1;align=center;verticalAlign=middle;resizable=0;points=[];autosize=1;strokeColor=none;fillColor=none;fontSize=23;fontFamily=Times New Roman;" parent="1" vertex="1">
          <mxGeometry x="547.5" y="536.25" width="60" height="40" as="geometry" />
        </mxCell>
        <mxCell id="hH8gsVPZzRmc-5s9tCda-59" style="edgeStyle=orthogonalEdgeStyle;rounded=0;orthogonalLoop=1;jettySize=auto;html=1;fontFamily=Times New Roman;fontSize=23;strokeWidth=2;endArrow=block;endFill=1;" parent="1" source="hH8gsVPZzRmc-5s9tCda-60" target="hH8gsVPZzRmc-5s9tCda-64" edge="1">
          <mxGeometry relative="1" as="geometry" />
        </mxCell>
        <mxCell id="hH8gsVPZzRmc-5s9tCda-60" value="" style="rounded=0;whiteSpace=wrap;html=1;fontFamily=Times New Roman;fontSize=23;rotation=90;" parent="1" vertex="1">
          <mxGeometry x="610" y="526.25" width="160" height="60" as="geometry" />
        </mxCell>
        <mxCell id="hH8gsVPZzRmc-5s9tCda-61" value="Edge&lt;br&gt;Conv" style="text;html=1;align=center;verticalAlign=middle;resizable=0;points=[];autosize=1;strokeColor=none;fillColor=none;fontSize=23;fontFamily=Times New Roman;" parent="1" vertex="1">
          <mxGeometry x="655" y="521.25" width="70" height="70" as="geometry" />
        </mxCell>
        <mxCell id="hH8gsVPZzRmc-5s9tCda-62" style="edgeStyle=orthogonalEdgeStyle;rounded=0;orthogonalLoop=1;jettySize=auto;html=1;strokeWidth=2;fontFamily=Times New Roman;fontSize=23;endArrow=block;endFill=1;" parent="1" source="hH8gsVPZzRmc-5s9tCda-63" target="hH8gsVPZzRmc-5s9tCda-66" edge="1">
          <mxGeometry relative="1" as="geometry" />
        </mxCell>
        <mxCell id="hH8gsVPZzRmc-5s9tCda-163" style="edgeStyle=orthogonalEdgeStyle;rounded=0;jumpStyle=arc;jumpSize=8;orthogonalLoop=1;jettySize=auto;html=1;strokeWidth=2;fontFamily=宋体;fontSize=24;endArrow=block;endFill=1;" parent="1" source="hH8gsVPZzRmc-5s9tCda-63" target="hH8gsVPZzRmc-5s9tCda-73" edge="1">
          <mxGeometry relative="1" as="geometry">
            <mxPoint x="1070" y="590" as="targetPoint" />
            <Array as="points">
              <mxPoint x="820" y="559" />
              <mxPoint x="820" y="691" />
              <mxPoint x="1070" y="691" />
            </Array>
          </mxGeometry>
        </mxCell>
        <mxCell id="hH8gsVPZzRmc-5s9tCda-63" value="" style="whiteSpace=wrap;html=1;aspect=fixed;fontFamily=Times New Roman;fontSize=23;" parent="1" vertex="1">
          <mxGeometry x="742.5" y="526.25" width="65" height="65" as="geometry" />
        </mxCell>
        <mxCell id="hH8gsVPZzRmc-5s9tCda-64" value="OA" style="text;html=1;align=center;verticalAlign=middle;resizable=0;points=[];autosize=1;strokeColor=none;fillColor=none;fontSize=23;fontFamily=Times New Roman;" parent="1" vertex="1">
          <mxGeometry x="745" y="536.25" width="60" height="40" as="geometry" />
        </mxCell>
        <mxCell id="hH8gsVPZzRmc-5s9tCda-65" style="edgeStyle=orthogonalEdgeStyle;rounded=0;orthogonalLoop=1;jettySize=auto;html=1;strokeWidth=2;fontFamily=Times New Roman;fontSize=23;endArrow=block;endFill=1;" parent="1" source="hH8gsVPZzRmc-5s9tCda-66" target="hH8gsVPZzRmc-5s9tCda-69" edge="1">
          <mxGeometry relative="1" as="geometry" />
        </mxCell>
        <mxCell id="hH8gsVPZzRmc-5s9tCda-66" value="" style="rounded=0;whiteSpace=wrap;html=1;fontFamily=Times New Roman;fontSize=23;rotation=90;" parent="1" vertex="1">
          <mxGeometry x="810" y="528.75" width="160" height="60" as="geometry" />
        </mxCell>
        <mxCell id="hH8gsVPZzRmc-5s9tCda-67" value="Edge&lt;br&gt;Conv" style="text;html=1;align=center;verticalAlign=middle;resizable=0;points=[];autosize=1;strokeColor=none;fillColor=none;fontSize=23;fontFamily=Times New Roman;" parent="1" vertex="1">
          <mxGeometry x="855" y="518.75" width="70" height="70" as="geometry" />
        </mxCell>
        <mxCell id="hH8gsVPZzRmc-5s9tCda-68" style="edgeStyle=orthogonalEdgeStyle;rounded=0;orthogonalLoop=1;jettySize=auto;html=1;strokeWidth=2;fontFamily=Times New Roman;fontSize=23;endArrow=block;endFill=1;" parent="1" source="hH8gsVPZzRmc-5s9tCda-69" target="hH8gsVPZzRmc-5s9tCda-73" edge="1">
          <mxGeometry relative="1" as="geometry" />
        </mxCell>
        <mxCell id="hH8gsVPZzRmc-5s9tCda-69" value="" style="whiteSpace=wrap;html=1;aspect=fixed;fontFamily=Times New Roman;fontSize=23;" parent="1" vertex="1">
          <mxGeometry x="947.5" y="526.25" width="65" height="65" as="geometry" />
        </mxCell>
        <mxCell id="hH8gsVPZzRmc-5s9tCda-70" value="OA" style="text;html=1;align=center;verticalAlign=middle;resizable=0;points=[];autosize=1;strokeColor=none;fillColor=none;fontSize=23;fontFamily=Times New Roman;" parent="1" vertex="1">
          <mxGeometry x="950" y="538.75" width="60" height="40" as="geometry" />
        </mxCell>
        <mxCell id="hH8gsVPZzRmc-5s9tCda-71" value="" style="group;fontFamily=Times New Roman;fontSize=23;" parent="1" vertex="1" connectable="0">
          <mxGeometry x="1060" y="538.75" width="40.0025" height="40.00249999999994" as="geometry" />
        </mxCell>
        <mxCell id="hH8gsVPZzRmc-5s9tCda-72" value="" style="ellipse;whiteSpace=wrap;html=1;aspect=fixed;fontFamily=Times New Roman;fontSize=36;" parent="hH8gsVPZzRmc-5s9tCda-71" vertex="1">
          <mxGeometry x="0.0024999999999977263" width="40" height="40" as="geometry" />
        </mxCell>
        <mxCell id="hH8gsVPZzRmc-5s9tCda-73" value="&lt;b style=&quot;font-size: 26px;&quot;&gt;C&lt;/b&gt;" style="text;html=1;align=center;verticalAlign=middle;resizable=0;points=[];autosize=1;strokeColor=none;fillColor=none;fontSize=23;fontFamily=Times New Roman;" parent="hH8gsVPZzRmc-5s9tCda-71" vertex="1">
          <mxGeometry y="0.002499999999940883" width="40" height="40" as="geometry" />
        </mxCell>
        <mxCell id="hH8gsVPZzRmc-5s9tCda-74" value="" style="rounded=0;whiteSpace=wrap;html=1;fontFamily=Times New Roman;fontSize=23;" parent="1" vertex="1">
          <mxGeometry x="1140" y="528.75" width="120" height="60" as="geometry" />
        </mxCell>
        <mxCell id="hH8gsVPZzRmc-5s9tCda-164" style="edgeStyle=orthogonalEdgeStyle;rounded=0;jumpStyle=arc;jumpSize=8;orthogonalLoop=1;jettySize=auto;html=1;entryX=0.929;entryY=1.032;entryDx=0;entryDy=0;entryPerimeter=0;strokeWidth=2;fontFamily=宋体;fontSize=24;endArrow=block;endFill=1;" parent="1" source="hH8gsVPZzRmc-5s9tCda-75" target="hH8gsVPZzRmc-5s9tCda-78" edge="1">
          <mxGeometry relative="1" as="geometry" />
        </mxCell>
        <mxCell id="hH8gsVPZzRmc-5s9tCda-75" value="&lt;font face=&quot;宋体&quot;&gt;聚合池化&lt;/font&gt;" style="text;html=1;align=center;verticalAlign=middle;resizable=0;points=[];autosize=1;strokeColor=none;fillColor=none;fontSize=23;fontFamily=Times New Roman;" parent="1" vertex="1">
          <mxGeometry x="1140" y="539.25" width="120" height="40" as="geometry" />
        </mxCell>
        <mxCell id="hH8gsVPZzRmc-5s9tCda-76" style="edgeStyle=orthogonalEdgeStyle;rounded=0;orthogonalLoop=1;jettySize=auto;html=1;entryX=0;entryY=0.5;entryDx=0;entryDy=0;strokeWidth=2;fontFamily=宋体;fontSize=23;endArrow=block;endFill=1;" parent="1" source="hH8gsVPZzRmc-5s9tCda-73" target="hH8gsVPZzRmc-5s9tCda-74" edge="1">
          <mxGeometry relative="1" as="geometry" />
        </mxCell>
        <mxCell id="hH8gsVPZzRmc-5s9tCda-108" style="edgeStyle=orthogonalEdgeStyle;rounded=0;orthogonalLoop=1;jettySize=auto;html=1;strokeWidth=2;fontFamily=Times New Roman;fontSize=23;endArrow=block;endFill=1;exitX=0.5;exitY=0;exitDx=0;exitDy=0;" parent="1" source="hH8gsVPZzRmc-5s9tCda-78" target="hH8gsVPZzRmc-5s9tCda-84" edge="1">
          <mxGeometry relative="1" as="geometry">
            <Array as="points" />
          </mxGeometry>
        </mxCell>
        <mxCell id="hH8gsVPZzRmc-5s9tCda-78" value="" style="rounded=0;whiteSpace=wrap;html=1;fontFamily=宋体;fontSize=23;rotation=90;" parent="1" vertex="1">
          <mxGeometry x="1161.25" y="358.75" width="399.5" height="60" as="geometry" />
        </mxCell>
        <mxCell id="hH8gsVPZzRmc-5s9tCda-83" value="信&lt;br&gt;息&lt;br&gt;交&lt;br&gt;互" style="text;html=1;align=center;verticalAlign=middle;resizable=0;points=[];autosize=1;strokeColor=none;fillColor=none;fontSize=23;fontFamily=宋体;" parent="1" vertex="1">
          <mxGeometry x="1336" y="320" width="50" height="120" as="geometry" />
        </mxCell>
        <mxCell id="hH8gsVPZzRmc-5s9tCda-102" style="edgeStyle=orthogonalEdgeStyle;rounded=0;orthogonalLoop=1;jettySize=auto;html=1;strokeWidth=2;fontFamily=宋体;fontSize=23;endArrow=block;endFill=1;" parent="1" source="hH8gsVPZzRmc-5s9tCda-84" target="hH8gsVPZzRmc-5s9tCda-86" edge="1">
          <mxGeometry relative="1" as="geometry" />
        </mxCell>
        <mxCell id="hH8gsVPZzRmc-5s9tCda-84" value="" style="rounded=0;whiteSpace=wrap;html=1;fontFamily=宋体;fontSize=23;rotation=90;" parent="1" vertex="1">
          <mxGeometry x="1400" y="371.25" width="120" height="35" as="geometry" />
        </mxCell>
        <mxCell id="hH8gsVPZzRmc-5s9tCda-85" value="&lt;font face=&quot;Times New Roman&quot;&gt;FC&lt;/font&gt;" style="text;html=1;align=center;verticalAlign=middle;resizable=0;points=[];autosize=1;strokeColor=none;fillColor=none;fontSize=23;fontFamily=宋体;" parent="1" vertex="1">
          <mxGeometry x="1432.5" y="366.25" width="50" height="40" as="geometry" />
        </mxCell>
        <mxCell id="hH8gsVPZzRmc-5s9tCda-99" style="edgeStyle=orthogonalEdgeStyle;rounded=0;orthogonalLoop=1;jettySize=auto;html=1;strokeWidth=2;fontFamily=宋体;fontSize=23;endArrow=block;endFill=1;" parent="1" source="hH8gsVPZzRmc-5s9tCda-86" target="hH8gsVPZzRmc-5s9tCda-88" edge="1">
          <mxGeometry relative="1" as="geometry" />
        </mxCell>
        <mxCell id="hH8gsVPZzRmc-5s9tCda-86" value="" style="rounded=0;whiteSpace=wrap;html=1;fontFamily=宋体;fontSize=23;rotation=90;" parent="1" vertex="1">
          <mxGeometry x="1457.5" y="371.25" width="120" height="35" as="geometry" />
        </mxCell>
        <mxCell id="hH8gsVPZzRmc-5s9tCda-87" value="&lt;font face=&quot;Times New Roman&quot;&gt;FC&lt;/font&gt;" style="text;html=1;align=center;verticalAlign=middle;resizable=0;points=[];autosize=1;strokeColor=none;fillColor=none;fontSize=23;fontFamily=宋体;" parent="1" vertex="1">
          <mxGeometry x="1492.5" y="368.75" width="50" height="40" as="geometry" />
        </mxCell>
        <mxCell id="hH8gsVPZzRmc-5s9tCda-100" style="edgeStyle=orthogonalEdgeStyle;rounded=0;orthogonalLoop=1;jettySize=auto;html=1;strokeWidth=2;fontFamily=宋体;fontSize=23;endArrow=block;endFill=1;" parent="1" source="hH8gsVPZzRmc-5s9tCda-88" target="hH8gsVPZzRmc-5s9tCda-90" edge="1">
          <mxGeometry relative="1" as="geometry" />
        </mxCell>
        <mxCell id="hH8gsVPZzRmc-5s9tCda-88" value="" style="rounded=0;whiteSpace=wrap;html=1;fontFamily=宋体;fontSize=23;rotation=90;" parent="1" vertex="1">
          <mxGeometry x="1520" y="371.25" width="120" height="35" as="geometry" />
        </mxCell>
        <mxCell id="hH8gsVPZzRmc-5s9tCda-89" value="&lt;font face=&quot;Times New Roman&quot;&gt;FC&lt;/font&gt;" style="text;html=1;align=center;verticalAlign=middle;resizable=0;points=[];autosize=1;strokeColor=none;fillColor=none;fontSize=23;fontFamily=宋体;" parent="1" vertex="1">
          <mxGeometry x="1555" y="366.25" width="50" height="40" as="geometry" />
        </mxCell>
        <mxCell id="hH8gsVPZzRmc-5s9tCda-116" style="edgeStyle=orthogonalEdgeStyle;rounded=0;orthogonalLoop=1;jettySize=auto;html=1;strokeWidth=2;fontFamily=Times New Roman;fontSize=23;endArrow=block;endFill=1;" parent="1" source="hH8gsVPZzRmc-5s9tCda-90" target="hH8gsVPZzRmc-5s9tCda-114" edge="1">
          <mxGeometry relative="1" as="geometry" />
        </mxCell>
        <mxCell id="hH8gsVPZzRmc-5s9tCda-90" value="" style="rounded=0;whiteSpace=wrap;html=1;fontFamily=宋体;fontSize=23;rotation=90;" parent="1" vertex="1">
          <mxGeometry x="1580" y="371.25" width="120" height="35" as="geometry" />
        </mxCell>
        <mxCell id="hH8gsVPZzRmc-5s9tCda-91" value="&lt;font face=&quot;Times New Roman&quot;&gt;FC&lt;/font&gt;" style="text;html=1;align=center;verticalAlign=middle;resizable=0;points=[];autosize=1;strokeColor=none;fillColor=none;fontSize=23;fontFamily=宋体;" parent="1" vertex="1">
          <mxGeometry x="1615" y="366.25" width="50" height="40" as="geometry" />
        </mxCell>
        <mxCell id="hH8gsVPZzRmc-5s9tCda-105" value="" style="rounded=0;whiteSpace=wrap;html=1;" parent="1" vertex="1">
          <mxGeometry x="1770" y="358.75" width="120" height="60" as="geometry" />
        </mxCell>
        <mxCell id="hH8gsVPZzRmc-5s9tCda-106" value="&lt;font style=&quot;font-size: 30px;&quot; face=&quot;Times New Roman&quot;&gt;Pose&lt;/font&gt;" style="text;html=1;align=center;verticalAlign=middle;resizable=0;points=[];autosize=1;strokeColor=none;fillColor=none;fontSize=23;fontFamily=宋体;" parent="1" vertex="1">
          <mxGeometry x="1790" y="363.25" width="80" height="50" as="geometry" />
        </mxCell>
        <mxCell id="hH8gsVPZzRmc-5s9tCda-109" value="&lt;b&gt;(B,3,N）&lt;/b&gt;" style="text;html=1;align=center;verticalAlign=middle;resizable=0;points=[];autosize=1;strokeColor=none;fillColor=none;fontSize=23;fontFamily=Times New Roman;" parent="1" vertex="1">
          <mxGeometry x="85" y="258.75" width="110" height="40" as="geometry" />
        </mxCell>
        <mxCell id="hH8gsVPZzRmc-5s9tCda-110" value="&lt;b&gt;(B,3,N）&lt;/b&gt;" style="text;html=1;align=center;verticalAlign=middle;resizable=0;points=[];autosize=1;strokeColor=none;fillColor=none;fontSize=23;fontFamily=Times New Roman;" parent="1" vertex="1">
          <mxGeometry x="85" y="596.25" width="110" height="40" as="geometry" />
        </mxCell>
        <mxCell id="hH8gsVPZzRmc-5s9tCda-111" value="&lt;b&gt;&amp;nbsp; &amp;nbsp;( 64 ,&amp;nbsp; &amp;nbsp; &amp;nbsp; &amp;nbsp; &amp;nbsp; &amp;nbsp; &amp;nbsp; &amp;nbsp; &amp;nbsp; &amp;nbsp; &amp;nbsp; &amp;nbsp; &amp;nbsp; 64 ,&amp;nbsp; &amp;nbsp; &amp;nbsp; &amp;nbsp; &amp;nbsp; &amp;nbsp; &amp;nbsp; &amp;nbsp; &amp;nbsp; &amp;nbsp; &amp;nbsp; &amp;nbsp; &amp;nbsp;128 ,&amp;nbsp; &amp;nbsp; &amp;nbsp; &amp;nbsp; &amp;nbsp; &amp;nbsp; &amp;nbsp; &amp;nbsp; &amp;nbsp; &amp;nbsp; &amp;nbsp; &amp;nbsp; &amp;nbsp;256&amp;nbsp; )&lt;/b&gt;" style="text;html=1;align=center;verticalAlign=middle;resizable=0;points=[];autosize=1;strokeColor=none;fillColor=none;fontSize=23;fontFamily=Times New Roman;" parent="1" vertex="1">
          <mxGeometry x="272.5" y="318.75" width="660" height="40" as="geometry" />
        </mxCell>
        <mxCell id="hH8gsVPZzRmc-5s9tCda-112" value="&lt;b&gt;&amp;nbsp; &amp;nbsp;( 64 ,&amp;nbsp; &amp;nbsp; &amp;nbsp; &amp;nbsp; &amp;nbsp; &amp;nbsp; &amp;nbsp; &amp;nbsp; &amp;nbsp; &amp;nbsp; &amp;nbsp; &amp;nbsp; &amp;nbsp; 64 ,&amp;nbsp; &amp;nbsp; &amp;nbsp; &amp;nbsp; &amp;nbsp; &amp;nbsp; &amp;nbsp; &amp;nbsp; &amp;nbsp; &amp;nbsp; &amp;nbsp; &amp;nbsp; &amp;nbsp;128 ,&amp;nbsp; &amp;nbsp; &amp;nbsp; &amp;nbsp; &amp;nbsp; &amp;nbsp; &amp;nbsp; &amp;nbsp; &amp;nbsp; &amp;nbsp; &amp;nbsp; &amp;nbsp; &amp;nbsp;256&amp;nbsp; )&lt;/b&gt;" style="text;html=1;align=center;verticalAlign=middle;resizable=0;points=[];autosize=1;strokeColor=none;fillColor=none;fontSize=23;fontFamily=Times New Roman;" parent="1" vertex="1">
          <mxGeometry x="272.5" y="408.25" width="660" height="40" as="geometry" />
        </mxCell>
        <mxCell id="hH8gsVPZzRmc-5s9tCda-113" value="&lt;b&gt;&amp;nbsp; &amp;nbsp; &amp;nbsp; &amp;nbsp; &amp;nbsp; &amp;nbsp; &amp;nbsp; &amp;nbsp; &amp;nbsp;( 256 , 128 ,&amp;nbsp; &amp;nbsp; 64 ,&amp;nbsp; &amp;nbsp; 64 ,&amp;nbsp; &amp;nbsp; &amp;nbsp; 7 )&lt;/b&gt;" style="text;html=1;align=center;verticalAlign=middle;resizable=0;points=[];autosize=1;strokeColor=none;fillColor=none;fontSize=23;fontFamily=Times New Roman;" parent="1" vertex="1">
          <mxGeometry x="1322.5" y="462.5" width="410" height="40" as="geometry" />
        </mxCell>
        <mxCell id="hH8gsVPZzRmc-5s9tCda-118" style="edgeStyle=orthogonalEdgeStyle;rounded=0;orthogonalLoop=1;jettySize=auto;html=1;entryX=0;entryY=0.5;entryDx=0;entryDy=0;strokeWidth=2;fontFamily=Times New Roman;fontSize=23;endArrow=block;endFill=1;" parent="1" source="hH8gsVPZzRmc-5s9tCda-114" target="hH8gsVPZzRmc-5s9tCda-105" edge="1">
          <mxGeometry relative="1" as="geometry" />
        </mxCell>
        <mxCell id="hH8gsVPZzRmc-5s9tCda-114" value="" style="rounded=0;whiteSpace=wrap;html=1;fontFamily=宋体;fontSize=23;rotation=90;" parent="1" vertex="1">
          <mxGeometry x="1640" y="371.25" width="120" height="35" as="geometry" />
        </mxCell>
        <mxCell id="hH8gsVPZzRmc-5s9tCda-115" value="&lt;font face=&quot;Times New Roman&quot;&gt;FC&lt;/font&gt;" style="text;html=1;align=center;verticalAlign=middle;resizable=0;points=[];autosize=1;strokeColor=none;fillColor=none;fontSize=23;fontFamily=宋体;" parent="1" vertex="1">
          <mxGeometry x="1675" y="366.25" width="50" height="40" as="geometry" />
        </mxCell>
        <mxCell id="hH8gsVPZzRmc-5s9tCda-119" value="" style="group;fontFamily=Times New Roman;fontSize=23;" parent="1" vertex="1" connectable="0">
          <mxGeometry x="1241" y="720" width="40.0025" height="40.00249999999994" as="geometry" />
        </mxCell>
        <mxCell id="hH8gsVPZzRmc-5s9tCda-120" value="" style="ellipse;whiteSpace=wrap;html=1;aspect=fixed;fontFamily=Times New Roman;fontSize=36;" parent="hH8gsVPZzRmc-5s9tCda-119" vertex="1">
          <mxGeometry x="0.0024999999999977263" width="40" height="40" as="geometry" />
        </mxCell>
        <mxCell id="hH8gsVPZzRmc-5s9tCda-121" value="&lt;b style=&quot;font-size: 26px;&quot;&gt;C&lt;/b&gt;" style="text;html=1;align=center;verticalAlign=middle;resizable=0;points=[];autosize=1;strokeColor=none;fillColor=none;fontSize=23;fontFamily=Times New Roman;" parent="hH8gsVPZzRmc-5s9tCda-119" vertex="1">
          <mxGeometry y="0.002499999999940883" width="40" height="40" as="geometry" />
        </mxCell>
        <mxCell id="hH8gsVPZzRmc-5s9tCda-122" value="&lt;font face=&quot;宋体&quot;&gt;连接&lt;/font&gt;" style="text;html=1;align=center;verticalAlign=middle;resizable=0;points=[];autosize=1;strokeColor=none;fillColor=none;fontSize=23;fontFamily=Times New Roman;" parent="1" vertex="1">
          <mxGeometry x="1281" y="720" width="70" height="40" as="geometry" />
        </mxCell>
        <mxCell id="hH8gsVPZzRmc-5s9tCda-124" value="" style="rounded=1;whiteSpace=wrap;html=1;dashed=1;dashPattern=8 8;fillStyle=hatch;fontFamily=宋体;fontSize=23;strokeWidth=3;" parent="1" vertex="1">
          <mxGeometry x="1463" y="-10" width="397" height="250" as="geometry" />
        </mxCell>
        <mxCell id="hH8gsVPZzRmc-5s9tCda-135" style="edgeStyle=orthogonalEdgeStyle;rounded=0;orthogonalLoop=1;jettySize=auto;html=1;entryX=0;entryY=0.5;entryDx=0;entryDy=0;strokeWidth=2;fontFamily=Times New Roman;fontSize=24;endArrow=block;endFill=1;" parent="1" source="hH8gsVPZzRmc-5s9tCda-125" target="hH8gsVPZzRmc-5s9tCda-134" edge="1">
          <mxGeometry relative="1" as="geometry" />
        </mxCell>
        <mxCell id="hH8gsVPZzRmc-5s9tCda-125" value="&lt;font face=&quot;Times New Roman&quot; style=&quot;font-size: 26px;&quot;&gt;maxpool&lt;/font&gt;" style="rounded=0;whiteSpace=wrap;html=1;fillStyle=hatch;fontFamily=宋体;fontSize=23;" parent="1" vertex="1">
          <mxGeometry x="1598" y="33.75" width="120" height="60" as="geometry" />
        </mxCell>
        <mxCell id="hH8gsVPZzRmc-5s9tCda-136" style="edgeStyle=orthogonalEdgeStyle;rounded=0;orthogonalLoop=1;jettySize=auto;html=1;entryX=0;entryY=0.5;entryDx=0;entryDy=0;strokeWidth=2;fontFamily=Times New Roman;fontSize=24;endArrow=block;endFill=1;" parent="1" source="hH8gsVPZzRmc-5s9tCda-126" target="hH8gsVPZzRmc-5s9tCda-134" edge="1">
          <mxGeometry relative="1" as="geometry" />
        </mxCell>
        <mxCell id="hH8gsVPZzRmc-5s9tCda-126" value="&lt;font face=&quot;Times New Roman&quot; style=&quot;font-size: 26px;&quot;&gt;avgpool&lt;/font&gt;" style="rounded=0;whiteSpace=wrap;html=1;fillStyle=hatch;fontFamily=宋体;fontSize=23;" parent="1" vertex="1">
          <mxGeometry x="1598" y="133.75" width="120" height="60" as="geometry" />
        </mxCell>
        <mxCell id="hH8gsVPZzRmc-5s9tCda-127" value="" style="edgeStyle=none;orthogonalLoop=1;jettySize=auto;html=1;rounded=0;strokeWidth=2;fontFamily=Times New Roman;fontSize=24;endArrow=block;endFill=1;entryX=0;entryY=0.5;entryDx=0;entryDy=0;" parent="1" target="hH8gsVPZzRmc-5s9tCda-125" edge="1">
          <mxGeometry width="80" relative="1" as="geometry">
            <mxPoint x="1500" y="113.75" as="sourcePoint" />
            <mxPoint x="1598" y="48.75" as="targetPoint" />
            <Array as="points">
              <mxPoint x="1550" y="113.75" />
              <mxPoint x="1550" y="63.75" />
            </Array>
          </mxGeometry>
        </mxCell>
        <mxCell id="hH8gsVPZzRmc-5s9tCda-128" value="" style="edgeStyle=none;orthogonalLoop=1;jettySize=auto;html=1;rounded=0;strokeWidth=2;fontFamily=Times New Roman;fontSize=24;endArrow=block;endFill=1;entryX=0;entryY=0.5;entryDx=0;entryDy=0;exitX=1;exitY=0.5;exitDx=0;exitDy=0;" parent="1" target="hH8gsVPZzRmc-5s9tCda-126" edge="1">
          <mxGeometry width="80" relative="1" as="geometry">
            <mxPoint x="1500" y="113.75" as="sourcePoint" />
            <mxPoint x="1608" y="58.75" as="targetPoint" />
            <Array as="points">
              <mxPoint x="1550" y="113.75" />
              <mxPoint x="1550" y="163.75" />
            </Array>
          </mxGeometry>
        </mxCell>
        <mxCell id="hH8gsVPZzRmc-5s9tCda-133" value="" style="whiteSpace=wrap;html=1;aspect=fixed;fillStyle=hatch;fontFamily=Times New Roman;fontSize=24;opacity=0;" parent="1" vertex="1">
          <mxGeometry x="1890" y="580" width="80" height="80" as="geometry" />
        </mxCell>
        <mxCell id="hH8gsVPZzRmc-5s9tCda-134" value="" style="whiteSpace=wrap;html=1;aspect=fixed;fillStyle=hatch;fontFamily=Times New Roman;fontSize=24;opacity=0;" parent="1" vertex="1">
          <mxGeometry x="1810" y="73.75" width="80" height="80" as="geometry" />
        </mxCell>
        <mxCell id="hH8gsVPZzRmc-5s9tCda-137" value="&lt;font face=&quot;宋体&quot;&gt;聚合池化&lt;/font&gt;" style="shape=tape;whiteSpace=wrap;html=1;fillStyle=hatch;fontFamily=Times New Roman;fontSize=24;opacity=0;" parent="1" vertex="1">
          <mxGeometry x="1720" y="158.75" width="120" height="100" as="geometry" />
        </mxCell>
        <mxCell id="hH8gsVPZzRmc-5s9tCda-167" value="&lt;b&gt;(B,7）&lt;/b&gt;" style="text;html=1;align=center;verticalAlign=middle;resizable=0;points=[];autosize=1;strokeColor=none;fillColor=none;fontSize=23;fontFamily=Times New Roman;" parent="1" vertex="1">
          <mxGeometry x="1795" y="418.75" width="90" height="40" as="geometry" />
        </mxCell>
      </root>
    </mxGraphModel>
  </diagram>
</mxfile>
